<svg width="697" height="231" viewBox="0 0 697 231" fill="none" xmlns="http://www.w3.org/2000/svg">
<path d="M213.347 147.151L187.847 189.722L183.768 165.707L165.045 154L133.526 159.046L107.906 181.134L98.5339 182.825L103.607 129.76L131.025 104L170.957 103.147L213.347 147.151Z" fill="#00CC66"/>
<path d="M215.344 139.911L173.97 96.75L128.264 97.7599L97.4269 126.724L91.9568 184.008L70.5508 187.873L30.7869 171.963L7.98682 150.487L47.6538 95.463L99.1299 69.725L159.511 73.425L193.154 102.765L215.344 139.911Z" fill="#F5D106"/>
<path d="M222.226 84.923L216.237 130.373L197.556 99.459L197.288 98.906L162.157 67.14L97.793 63.189L43.354 90.414L5.33496 143.152L0 118.579L19.2319 62.17L28.3409 51.129L95.5339 19.975L166.602 24.795L222.226 84.923Z" fill="#E50C54"/>
<path d="M264.673 113.549L258.956 153.86L219.568 214.52L180.937 230.967L189.137 200.124L220.087 148.433L220.522 147.198L229.008 82.764L169.593 18.54L94.327 13.44L37.811 39.64L50.1511 24.675L96.3081 4.32101L155.908 0L216.547 24.713L259 75.776L264.673 113.549Z" fill="#45B0F2"/>
<path d="M338.152 100.352C334.672 100.352 331.336 99.8961 328.146 98.9845C324.955 98.0316 322.387 96.8093 320.439 95.3177L323.857 87.7354C325.722 89.0612 327.918 90.1592 330.445 91.0293C333.014 91.858 335.604 92.2723 338.214 92.2723C340.203 92.2723 341.798 92.0859 343 91.713C344.243 91.2986 345.154 90.7393 345.734 90.0349C346.314 89.3306 346.604 88.5226 346.604 87.6111C346.604 86.4509 346.149 85.5394 345.237 84.8765C344.325 84.1721 343.124 83.6128 341.632 83.1984C340.141 82.7427 338.483 82.3283 336.66 81.9554C334.879 81.5411 333.076 81.0439 331.253 80.4638C329.472 79.8837 327.835 79.1379 326.343 78.2264C324.852 77.3149 323.63 76.1133 322.677 74.6217C321.765 73.1301 321.309 71.2242 321.309 68.9039C321.309 66.4179 321.972 64.1598 323.298 62.1296C324.665 60.0579 326.696 58.4213 329.389 57.2197C332.123 55.9767 335.542 55.3552 339.644 55.3552C342.378 55.3552 345.071 55.6867 347.723 56.3496C350.375 56.9711 352.716 57.9241 354.746 59.2085L351.638 66.853C349.608 65.6928 347.578 64.8434 345.548 64.3048C343.518 63.7247 341.529 63.4347 339.581 63.4347C337.634 63.4347 336.039 63.6626 334.796 64.1184C333.553 64.5741 332.662 65.1749 332.123 65.9207C331.585 66.6251 331.315 67.4537 331.315 68.4067C331.315 69.5254 331.771 70.4369 332.683 71.1413C333.594 71.8042 334.796 72.3429 336.287 72.7572C337.779 73.1715 339.416 73.5859 341.197 74.0002C343.02 74.4145 344.823 74.891 346.604 75.4297C348.427 75.9683 350.085 76.6934 351.576 77.6049C353.068 78.5165 354.269 79.718 355.181 81.2096C356.134 82.7012 356.61 84.5864 356.61 86.8653C356.61 89.3098 355.927 91.5472 354.56 93.5775C353.192 95.6077 351.141 97.2443 348.407 98.4873C345.714 99.7303 342.295 100.352 338.152 100.352ZM378.966 100.103C375.361 100.103 372.15 99.3781 369.332 97.928C366.515 96.4364 364.298 94.3854 362.682 91.7751C361.108 89.1648 360.321 86.2023 360.321 82.8877C360.321 79.5316 361.108 76.5691 362.682 74.0002C364.298 71.3899 366.515 69.3597 369.332 67.9095C372.15 66.4179 375.361 65.6721 378.966 65.6721C382.487 65.6721 385.553 66.4179 388.164 67.9095C390.774 69.3597 392.701 71.4521 393.944 74.1867L386.424 78.2264C385.553 76.6519 384.455 75.4918 383.13 74.746C381.845 74.0002 380.436 73.6273 378.903 73.6273C377.246 73.6273 375.754 74.0002 374.429 74.746C373.103 75.4918 372.046 76.5484 371.259 77.9157C370.513 79.283 370.14 80.9403 370.14 82.8877C370.14 84.835 370.513 86.4924 371.259 87.8597C372.046 89.227 373.103 90.2835 374.429 91.0293C375.754 91.7751 377.246 92.148 378.903 92.148C380.436 92.148 381.845 91.7958 383.13 91.0915C384.455 90.3457 385.553 89.1648 386.424 87.5489L393.944 91.6508C392.701 94.344 390.774 96.4364 388.164 97.928C385.553 99.3781 382.487 100.103 378.966 100.103ZM419.667 65.6721C422.319 65.6721 424.68 66.2107 426.752 67.288C428.865 68.3238 430.523 69.9397 431.724 72.1357C432.926 74.2902 433.526 77.0663 433.526 80.4638V99.606H423.831V81.9554C423.831 79.2623 423.23 77.2735 422.029 75.989C420.869 74.7046 419.211 74.0624 417.057 74.0624C415.524 74.0624 414.136 74.3938 412.893 75.0568C411.691 75.6783 410.738 76.6519 410.034 77.9778C409.371 79.3037 409.039 81.0025 409.039 83.0741V99.606H399.344V53.4907H409.039V75.4297L406.864 72.6329C408.066 70.3955 409.785 68.676 412.023 67.4745C414.26 66.2729 416.808 65.6721 419.667 65.6721ZM459.152 100.103C455.34 100.103 451.984 99.3574 449.083 97.8658C446.224 96.3742 444.008 94.344 442.433 91.7751C440.859 89.1648 440.072 86.2023 440.072 82.8877C440.072 79.5316 440.838 76.5691 442.371 74.0002C443.946 71.3899 446.079 69.3597 448.773 67.9095C451.466 66.4179 454.511 65.6721 457.909 65.6721C461.182 65.6721 464.124 66.3765 466.734 67.7852C469.386 69.1525 471.478 71.1413 473.011 73.7516C474.544 76.3205 475.311 79.4073 475.311 83.012C475.311 83.3849 475.29 83.8199 475.249 84.3171C475.207 84.7729 475.166 85.2079 475.124 85.6223H447.965V79.9666H470.028L466.299 81.6447C466.299 79.9045 465.947 78.3921 465.242 77.1077C464.538 75.8233 463.564 74.8289 462.321 74.1245C461.078 73.3787 459.628 73.0058 457.971 73.0058C456.313 73.0058 454.843 73.3787 453.558 74.1245C452.315 74.8289 451.341 75.844 450.637 77.1699C449.933 78.4543 449.581 79.9873 449.581 81.769V83.2606C449.581 85.0836 449.974 86.6995 450.761 88.1083C451.59 89.4756 452.729 90.5321 454.18 91.2779C455.671 91.9823 457.411 92.3345 459.4 92.3345C461.182 92.3345 462.736 92.0652 464.062 91.5265C465.429 90.9879 466.672 90.1799 467.791 89.1027L472.949 94.6962C471.416 96.4364 469.489 97.783 467.169 98.7359C464.849 99.6475 462.176 100.103 459.152 100.103ZM524.587 65.6721C527.239 65.6721 529.58 66.2107 531.61 67.288C533.681 68.3238 535.297 69.9397 536.458 72.1357C537.659 74.2902 538.26 77.0663 538.26 80.4638V99.606H528.564V81.9554C528.564 79.2623 528.005 77.2735 526.886 75.989C525.768 74.7046 524.193 74.0624 522.163 74.0624C520.754 74.0624 519.491 74.3938 518.372 75.0568C517.253 75.6783 516.383 76.6312 515.762 77.9157C515.14 79.2001 514.829 80.8367 514.829 82.8255V99.606H505.134V81.9554C505.134 79.2623 504.575 77.2735 503.456 75.989C502.379 74.7046 500.825 74.0624 498.795 74.0624C497.386 74.0624 496.122 74.3938 495.003 75.0568C493.885 75.6783 493.015 76.6312 492.393 77.9157C491.772 79.2001 491.461 80.8367 491.461 82.8255V99.606H481.766V66.1693H491.026V75.3054L489.286 72.6329C490.446 70.3541 492.082 68.6346 494.196 67.4745C496.35 66.2729 498.795 65.6721 501.529 65.6721C504.595 65.6721 507.268 66.4594 509.547 68.0338C511.867 69.5668 513.4 71.9285 514.146 75.1189L510.727 74.1867C511.846 71.5764 513.628 69.5047 516.072 67.9717C518.558 66.4386 521.397 65.6721 524.587 65.6721ZM567.46 99.606V93.0803L566.838 91.6508V79.9666C566.838 77.8949 566.196 76.279 564.912 75.1189C563.669 73.9588 561.742 73.3787 559.132 73.3787C557.35 73.3787 555.589 73.6687 553.849 74.2488C552.15 74.7874 550.7 75.5333 549.498 76.4862L546.018 69.7119C547.841 68.4274 550.037 67.433 552.606 66.7287C555.175 66.0243 557.785 65.6721 560.437 65.6721C565.533 65.6721 569.49 66.8737 572.307 69.2768C575.125 71.6799 576.534 75.4297 576.534 80.526V99.606H567.46ZM557.267 100.103C554.657 100.103 552.419 99.6682 550.555 98.7981C548.69 97.8865 547.261 96.6643 546.267 95.1312C545.272 93.5982 544.775 91.8787 544.775 89.9728C544.775 87.984 545.251 86.2438 546.204 84.7522C547.199 83.2606 548.753 82.1004 550.866 81.2718C552.979 80.4017 555.734 79.9666 559.132 79.9666H568.019V85.6223H560.188C557.909 85.6223 556.335 85.9952 555.465 86.741C554.636 87.4868 554.222 88.419 554.222 89.5377C554.222 90.7807 554.698 91.7751 555.651 92.5209C556.646 93.2253 557.992 93.5775 559.691 93.5775C561.307 93.5775 562.757 93.2046 564.041 92.4588C565.326 91.6715 566.258 90.5321 566.838 89.0405L568.33 93.5153C567.625 95.6699 566.341 97.3065 564.477 98.4252C562.612 99.5439 560.209 100.103 557.267 100.103ZM598.981 100.103C595.045 100.103 591.979 99.1088 589.783 97.12C587.587 95.0898 586.489 92.0859 586.489 88.1083V58.7735H596.185V87.984C596.185 89.3927 596.558 90.4907 597.303 91.2779C598.049 92.0237 599.064 92.3966 600.349 92.3966C601.882 92.3966 603.187 91.9823 604.264 91.1536L606.874 97.9901C605.88 98.6945 604.678 99.2331 603.27 99.606C601.902 99.9375 600.473 100.103 598.981 100.103ZM581.331 74.3731V66.9151H604.513V74.3731H581.331ZM612.317 99.606V66.1693H622.012V99.606H612.317ZM617.165 61.5081C615.383 61.5081 613.933 60.9901 612.814 59.9543C611.695 58.9185 611.136 57.634 611.136 56.101C611.136 54.568 611.695 53.2835 612.814 52.2477C613.933 51.2119 615.383 50.694 617.165 50.694C618.946 50.694 620.396 51.1912 621.515 52.1856C622.634 53.1385 623.193 54.3815 623.193 55.9146C623.193 57.5305 622.634 58.877 621.515 59.9543C620.438 60.9901 618.988 61.5081 617.165 61.5081ZM647.17 100.103C643.565 100.103 640.354 99.3781 637.536 97.928C634.719 96.4364 632.502 94.3854 630.886 91.7751C629.312 89.1648 628.525 86.2023 628.525 82.8877C628.525 79.5316 629.312 76.5691 630.886 74.0002C632.502 71.3899 634.719 69.3597 637.536 67.9095C640.354 66.4179 643.565 65.6721 647.17 65.6721C650.691 65.6721 653.757 66.4179 656.368 67.9095C658.978 69.3597 660.905 71.4521 662.148 74.1867L654.628 78.2264C653.757 76.6519 652.659 75.4918 651.334 74.746C650.049 74.0002 648.64 73.6273 647.107 73.6273C645.45 73.6273 643.958 74.0002 642.633 74.746C641.307 75.4918 640.25 76.5484 639.463 77.9157C638.717 79.283 638.344 80.9403 638.344 82.8877C638.344 84.835 638.717 86.4924 639.463 87.8597C640.25 89.227 641.307 90.2835 642.633 91.0293C643.958 91.7751 645.45 92.148 647.107 92.148C648.64 92.148 650.049 91.7958 651.334 91.0915C652.659 90.3457 653.757 89.1648 654.628 87.5489L662.148 91.6508C660.905 94.344 658.978 96.4364 656.368 97.928C653.757 99.3781 650.691 100.103 647.17 100.103ZM678.979 100.103C676.12 100.103 673.365 99.7718 670.713 99.1088C668.103 98.4045 666.031 97.5344 664.498 96.4985L667.73 89.5377C669.263 90.4907 671.065 91.2779 673.137 91.8994C675.25 92.4795 677.322 92.7695 679.352 92.7695C681.589 92.7695 683.164 92.5002 684.075 91.9616C685.028 91.4229 685.505 90.6771 685.505 89.7242C685.505 88.9369 685.132 88.3569 684.386 87.984C683.682 87.5696 682.729 87.2589 681.527 87.0517C680.326 86.8446 679 86.6374 677.55 86.4302C676.141 86.2231 674.712 85.9537 673.261 85.6223C671.811 85.2494 670.485 84.7107 669.284 84.0064C668.082 83.302 667.108 82.349 666.363 81.1475C665.658 79.9459 665.306 78.3922 665.306 76.4862C665.306 74.3731 665.907 72.5086 667.108 70.8927C668.351 69.2768 670.133 68.0131 672.453 67.1016C674.774 66.1486 677.55 65.6721 680.781 65.6721C683.06 65.6721 685.381 65.9207 687.742 66.4179C690.104 66.9151 692.072 67.6402 693.647 68.5932L690.415 75.4918C688.799 74.5388 687.162 73.8966 685.505 73.5652C683.889 73.1923 682.315 73.0058 680.781 73.0058C678.627 73.0058 677.052 73.2958 676.058 73.8759C675.064 74.456 674.566 75.2018 674.566 76.1133C674.566 76.942 674.919 77.5635 675.623 77.9778C676.369 78.3921 677.343 78.7236 678.544 78.9722C679.746 79.2208 681.051 79.4487 682.46 79.6559C683.91 79.8216 685.36 80.0909 686.81 80.4638C688.26 80.8367 689.565 81.3753 690.725 82.0797C691.927 82.7427 692.901 83.6749 693.647 84.8765C694.392 86.0366 694.765 87.5696 694.765 89.4756C694.765 91.5472 694.144 93.391 692.901 95.0069C691.658 96.5814 689.855 97.8244 687.494 98.7359C685.173 99.6475 682.335 100.103 678.979 100.103Z" fill="white"/>
<path d="M321.62 163.787V159.561L339.333 142.47C340.908 140.978 342.068 139.673 342.814 138.554C343.601 137.394 344.119 136.337 344.367 135.384C344.657 134.39 344.802 133.437 344.802 132.526C344.802 130.288 344.015 128.527 342.441 127.243C340.866 125.958 338.567 125.316 335.542 125.316C333.222 125.316 331.129 125.71 329.265 126.497C327.4 127.243 325.785 128.424 324.417 130.04L320.191 126.373C321.848 124.26 324.065 122.644 326.841 121.525C329.659 120.365 332.745 119.785 336.101 119.785C339.126 119.785 341.757 120.282 343.994 121.276C346.232 122.229 347.951 123.617 349.153 125.44C350.396 127.264 351.017 129.418 351.017 131.904C351.017 133.313 350.831 134.701 350.458 136.068C350.085 137.435 349.381 138.886 348.345 140.419C347.309 141.952 345.818 143.671 343.87 145.577L328.084 160.804L326.592 158.38H352.882V163.787H321.62ZM375.706 164.284C372.308 164.284 369.263 163.414 366.57 161.674C363.918 159.934 361.805 157.406 360.231 154.092C358.698 150.777 357.931 146.758 357.931 142.034C357.931 137.311 358.698 133.292 360.231 129.977C361.805 126.663 363.918 124.135 366.57 122.395C369.263 120.655 372.308 119.785 375.706 119.785C379.062 119.785 382.087 120.655 384.78 122.395C387.473 124.135 389.586 126.663 391.119 129.977C392.652 133.292 393.419 137.311 393.419 142.034C393.419 146.758 392.652 150.777 391.119 154.092C389.586 157.406 387.473 159.934 384.78 161.674C382.087 163.414 379.062 164.284 375.706 164.284ZM375.706 158.753C377.985 158.753 379.974 158.131 381.672 156.888C383.413 155.645 384.759 153.781 385.712 151.295C386.707 148.809 387.204 145.722 387.204 142.034C387.204 138.347 386.707 135.26 385.712 132.774C384.759 130.288 383.413 128.424 381.672 127.181C379.974 125.938 377.985 125.316 375.706 125.316C373.427 125.316 371.418 125.938 369.677 127.181C367.937 128.424 366.57 130.288 365.576 132.774C364.623 135.26 364.146 138.347 364.146 142.034C364.146 145.722 364.623 148.809 365.576 151.295C366.57 153.781 367.937 155.645 369.677 156.888C371.418 158.131 373.427 158.753 375.706 158.753ZM398.701 163.787V159.561L416.414 142.47C417.988 140.978 419.148 139.673 419.894 138.554C420.681 137.394 421.199 136.337 421.448 135.384C421.738 134.39 421.883 133.437 421.883 132.526C421.883 130.288 421.096 128.527 419.521 127.243C417.947 125.958 415.647 125.316 412.623 125.316C410.302 125.316 408.21 125.71 406.345 126.497C404.481 127.243 402.865 128.424 401.498 130.04L397.272 126.373C398.929 124.26 401.146 122.644 403.922 121.525C406.739 120.365 409.826 119.785 413.182 119.785C416.207 119.785 418.838 120.282 421.075 121.276C423.312 122.229 425.032 123.617 426.233 125.44C427.476 127.264 428.098 129.418 428.098 131.904C428.098 133.313 427.912 134.701 427.539 136.068C427.166 137.435 426.461 138.886 425.426 140.419C424.39 141.952 422.898 143.671 420.951 145.577L405.165 160.804L403.673 158.38H429.962V163.787H398.701ZM448.372 164.284C445.306 164.284 442.323 163.808 439.423 162.855C436.564 161.902 434.223 160.617 432.4 159.001L435.259 154.092C436.709 155.459 438.594 156.578 440.914 157.448C443.235 158.318 445.721 158.753 448.372 158.753C451.604 158.753 454.111 158.069 455.893 156.702C457.716 155.293 458.627 153.408 458.627 151.046C458.627 148.767 457.757 146.944 456.017 145.577C454.318 144.168 451.604 143.464 447.875 143.464H444.395V139.113L457.322 123.203L458.192 125.689H434.389V120.282H463.102V124.508L450.237 140.356L447.005 138.43H449.056C454.318 138.43 458.254 139.611 460.865 141.972C463.516 144.334 464.842 147.338 464.842 150.984C464.842 153.429 464.241 155.666 463.04 157.696C461.838 159.727 460.015 161.342 457.571 162.544C455.168 163.704 452.101 164.284 448.372 164.284Z" fill="white"/>
</svg>
