<svg width="512" height="512" viewBox="0 0 512 512" fill="none" xmlns="http://www.w3.org/2000/svg">
<g clip-path="url(#clip0_210_795)">
<path fill-rule="evenodd" clip-rule="evenodd" d="M0 0H512V512H0V0V0Z" fill="#F7DF1E"/>
<path fill-rule="evenodd" clip-rule="evenodd" d="M134.626 427.862L173.808 404.15C181.367 417.552 188.243 428.891 204.736 428.891C220.547 428.891 230.514 422.707 230.514 398.651V235.055H278.629V399.331C278.629 449.166 249.418 471.849 206.799 471.849C168.309 471.849 145.966 451.914 134.625 427.858" fill="black"/>
<path fill-rule="evenodd" clip-rule="evenodd" d="M304.766 422.707L343.943 400.024C354.256 416.866 367.66 429.238 391.372 429.238C411.309 429.238 424.022 419.27 424.022 405.522C424.022 389.025 410.963 383.182 388.966 373.562L376.941 368.403C342.226 353.628 319.198 335.069 319.198 295.888C319.198 259.801 346.693 232.305 389.655 232.305C420.244 232.305 442.239 242.96 458.047 270.799L420.585 294.856C412.336 280.078 403.403 274.237 389.656 274.237C375.565 274.237 366.628 283.172 366.628 294.856C366.628 309.291 375.565 315.135 396.184 324.071L408.212 329.226C449.111 346.755 472.138 364.625 472.138 404.835C472.138 448.142 438.114 471.854 392.405 471.854C347.726 471.854 318.855 450.547 304.766 422.707" fill="black"/>
</g>
<defs>
<clipPath id="clip0_210_795">
<rect width="512" height="512" fill="white"/>
</clipPath>
</defs>
</svg>
