<svg width="512" height="512" viewBox="0 0 512 512" fill="none" xmlns="http://www.w3.org/2000/svg">
<path fill-rule="evenodd" clip-rule="evenodd" d="M477.696 153.08C477.693 144.694 475.899 137.285 472.273 130.925C468.71 124.672 463.375 119.43 456.219 115.286C397.148 81.2255 338.019 47.2689 278.967 13.1734C263.047 3.98242 247.611 4.31749 231.809 13.6404C208.297 27.5067 90.5799 94.9494 55.5017 115.267C41.0556 123.63 34.026 136.429 34.0226 153.064C34 221.562 34.0226 290.059 34 358.559C34.0035 366.76 35.7205 374.026 39.1875 380.29C42.7517 386.732 48.1615 392.118 55.4826 396.356C90.5625 416.673 208.295 484.111 231.802 497.981C247.611 507.309 263.047 507.642 278.972 498.448C338.026 464.35 397.158 430.396 456.238 396.335C463.559 392.099 468.969 386.71 472.533 380.272C475.995 374.008 477.715 366.743 477.719 358.54C477.719 358.54 477.719 221.58 477.696 153.08" fill="#5C8DBC"/>
<path fill-rule="evenodd" clip-rule="evenodd" d="M256.538 255.148L39.1875 380.294C42.7517 386.737 48.1615 392.122 55.4826 396.36C90.5625 416.678 208.295 484.115 231.802 497.985C247.611 507.313 263.047 507.647 278.972 498.452C338.026 464.355 397.158 430.4 456.238 396.339C463.559 392.103 468.969 386.714 472.533 380.277L256.538 255.148" fill="#1A4674"/>
<path fill-rule="evenodd" clip-rule="evenodd" d="M192.164 292.218C204.812 314.298 228.588 329.19 255.862 329.19C283.305 329.19 307.216 314.109 319.799 291.793L256.541 255.148L192.164 292.218" fill="#1A4674"/>
<path fill-rule="evenodd" clip-rule="evenodd" d="M477.697 153.084C477.694 144.699 475.9 137.289 472.273 130.93L256.539 255.148L472.534 380.277C475.996 374.013 477.716 366.747 477.72 358.544C477.72 358.544 477.72 221.584 477.697 153.084" fill="#1B598E"/>
<path fill-rule="evenodd" clip-rule="evenodd" d="M465.817 264.091H448.938V280.973H432.056V264.091H415.18V247.214H432.056V230.336H448.938V247.214H465.817V264.091" fill="white"/>
<path fill-rule="evenodd" clip-rule="evenodd" d="M404.227 264.091H387.351V280.973H370.472V264.091H353.594V247.214H370.472V230.336H387.351V247.214H404.227V264.091" fill="white"/>
<path fill-rule="evenodd" clip-rule="evenodd" d="M319.798 291.789C307.214 314.105 283.303 329.187 255.86 329.187C228.586 329.187 204.81 314.294 192.162 292.214C186.018 281.485 182.485 269.063 182.485 255.812C182.485 215.289 215.338 182.438 255.86 182.438C282.959 182.438 306.61 197.145 319.32 218.999L383.454 182.069C357.963 138.065 310.371 108.461 255.86 108.461C174.478 108.461 108.508 174.433 108.508 255.812C108.508 282.51 115.61 307.546 128.023 329.141C153.451 373.378 201.178 403.164 255.86 403.164C310.643 403.164 358.445 373.258 383.836 328.891L319.798 291.789" fill="white"/>
</svg>
