<svg width="512" height="512" viewBox="0 0 512 512" fill="none" xmlns="http://www.w3.org/2000/svg">
<path fill-rule="evenodd" clip-rule="evenodd" d="M478.422 153C478.418 144.592 476.622 137.163 472.99 130.788C469.422 124.517 464.076 119.264 456.91 115.108C397.741 80.9583 338.516 46.9132 279.368 12.7292C263.422 3.51563 247.96 3.8507 232.132 13.1979C208.582 27.1007 90.6719 94.7188 55.5365 115.089C41.0677 123.474 34.026 136.306 34.0226 152.984C34 221.661 34.0226 290.335 34 359.014C34.0035 367.236 35.724 374.521 39.1962 380.802C42.7656 387.26 48.184 392.66 55.5174 396.91C90.6545 417.28 208.58 484.892 232.125 498.799C247.96 508.151 263.422 508.484 279.373 499.267C338.523 465.082 397.752 431.038 456.929 396.889C464.262 392.641 469.681 387.238 473.25 380.785C476.717 374.503 478.441 367.219 478.444 358.995C478.444 358.995 478.444 221.679 478.422 153" fill="#A9B9CB"/>
<path fill-rule="evenodd" clip-rule="evenodd" d="M278.967 13.1734C263.047 3.98242 247.611 4.31749 231.809 13.6404C208.297 27.5067 90.5799 94.9494 55.5017 115.267C41.0556 123.63 34.026 136.429 34.0226 153.064C34 221.562 34.0226 290.059 34 358.559C34.0035 366.76 35.7205 374.026 39.1875 380.29C42.7517 386.732 48.1615 392.118 55.4826 396.356C63.5191 401.01 75.8976 408.14 90.4809 416.529L415.293 91.7168C369.845 65.5467 324.385 39.3974 278.967 13.1734" fill="#7F8B99"/>
<path fill-rule="evenodd" clip-rule="evenodd" d="M302.152 224.692L371.317 225.18C371.317 196.362 342.147 125.789 258.516 125.789C205.234 125.789 133.602 159.664 133.602 257.056C133.602 354.447 203.822 386.206 258.516 386.206C347.088 386.206 368.256 324.918 368.256 290.282L302.272 286.51C302.272 286.51 304.037 326.57 258.164 326.57C215.82 326.57 208.754 274.699 208.754 257.056C208.754 230.239 218.291 187.188 258.164 187.188C298.039 187.188 302.152 224.692 302.152 224.692" fill="white"/>
</svg>
