<svg width="512" height="512" viewBox="0 0 512 512" fill="none" xmlns="http://www.w3.org/2000/svg">
<path fill-rule="evenodd" clip-rule="evenodd" d="M71.0864 460.816L30 0H481.474L440.344 460.741L255.464 512L71.0864 460.816Z" fill="#0071BC"/>
<path fill-rule="evenodd" clip-rule="evenodd" d="M256.117 472.794L405.324 431.747L440.283 38.375H256.117V472.794Z" fill="#29ABE2"/>
<path fill-rule="evenodd" clip-rule="evenodd" d="M124.047 207.682L128.996 264.116L256.117 207.682V151.156L124.047 207.682Z" fill="#B3B3B3"/>
<path fill-rule="evenodd" clip-rule="evenodd" d="M396.907 90.8125L256.117 151.151V207.677L392.053 147.247L396.907 90.8125Z" fill="#E6E6E6"/>
<path fill-rule="evenodd" clip-rule="evenodd" d="M256.117 355.34L255.68 355.405L192.638 338.475L188.519 293.461H131.781L139.699 382.142L255.668 414.252L256.117 414.146V355.34Z" fill="#E6E6E6"/>
<path fill-rule="evenodd" clip-rule="evenodd" d="M256.117 207.68V264.114H325.139L318.865 337.897L256.117 355.387V414.189L371.701 382.079L386.922 207.68H256.117Z" fill="white"/>
<path fill-rule="evenodd" clip-rule="evenodd" d="M256.117 207.68H124.047L128.996 264.114H256.117V207.68Z" fill="#E6E6E6"/>
<path fill-rule="evenodd" clip-rule="evenodd" d="M256.119 147.247V90.8125H255.546H114.016L119.024 147.247H256.119Z" fill="#E6E6E6"/>
<path fill-rule="evenodd" clip-rule="evenodd" d="M256.117 90.8125V146.539V147.247H392.053L396.907 90.8125H256.117Z" fill="white"/>
</svg>
