<svg width="512" height="512" viewBox="0 0 512 512" fill="none" xmlns="http://www.w3.org/2000/svg">
<path fill-rule="evenodd" clip-rule="evenodd" d="M71.0852 460.819L30 0H481.456L440.327 460.747L255.451 512L71.0852 460.819Z" fill="#E44D26"/>
<path fill-rule="evenodd" clip-rule="evenodd" d="M255.727 472.825L405.115 431.409L440.262 37.6797H255.727V472.825Z" fill="#F16529"/>
<path d="M180.939 208.588H255.727V265.105H129.252L114.008 94.1953H255.727V150.713H175.774L180.939 208.588Z" fill="#EBEBEB"/>
<path d="M255.479 355.436L255.727 355.37V414.172L255.467 414.244L139.695 382.105L131.777 293.365H188.512L192.535 338.44L255.479 355.436Z" fill="#EBEBEB"/>
<path d="M255.531 94.1953H397.108L392.048 150.713H255.531V94.1953Z" fill="white"/>
<path d="M255.531 265.105V208.588H386.905L385.526 223.765L371.395 382.105L255.531 414.217V355.418L318.566 338.404L325.126 265.105H255.531Z" fill="white"/>
</svg>
