<svg width="512" height="512" viewBox="0 0 512 512" fill="none" xmlns="http://www.w3.org/2000/svg">
<g clip-path="url(#clip0_211_1075)">
<g clip-path="url(#clip1_211_1075)">
<path fill-rule="evenodd" clip-rule="evenodd" d="M496.969 305.402C494.062 296.599 486.447 290.466 476.597 288.993C471.954 288.3 466.635 288.596 460.342 289.894C449.373 292.157 441.235 293.018 435.296 293.186C457.713 255.335 475.942 212.171 486.437 171.54C503.405 105.843 494.337 75.913 483.741 62.3742C455.699 26.5424 414.784 7.29181 365.423 6.70171C339.093 6.38034 315.976 11.5793 303.919 15.317C292.691 13.3373 280.618 12.231 267.95 12.0261C244.208 11.6476 223.229 16.8231 205.303 27.4606C195.376 24.1059 179.45 19.375 161.056 16.355C117.794 9.25248 82.9273 14.7874 57.424 32.804C26.5416 54.6188 12.2245 92.5199 14.8727 145.456C15.7125 162.263 25.115 213.398 39.918 261.895C48.4258 289.769 57.498 312.918 66.8825 330.701C80.1907 355.919 94.4304 370.77 110.417 376.103C119.378 379.089 135.658 381.178 152.782 366.919C154.953 369.546 157.847 372.159 161.691 374.584C166.571 377.662 172.539 380.177 178.498 381.668C199.978 387.038 220.098 385.694 237.263 378.168C237.368 381.221 237.45 384.138 237.519 386.656C237.633 390.742 237.745 394.747 237.895 398.493C238.912 423.824 240.635 443.519 245.741 457.298C246.021 458.058 246.399 459.212 246.797 460.436C249.343 468.236 253.604 481.292 264.44 491.519C275.663 502.11 289.236 505.36 301.668 505.359C307.903 505.359 313.852 504.541 319.069 503.423C337.669 499.438 358.792 493.364 374.072 471.608C388.517 451.039 395.54 420.06 396.811 371.246C396.976 369.867 397.128 368.549 397.275 367.292C397.373 366.445 397.474 365.578 397.576 364.714L400.98 365.013L401.857 365.072C420.801 365.935 443.964 361.918 458.189 355.31C469.43 350.093 505.45 331.078 496.969 305.402" fill="black"/>
<path fill-rule="evenodd" clip-rule="evenodd" d="M464.577 310.398C408.252 322.016 404.38 302.946 404.38 302.946C463.851 214.701 488.711 102.688 467.257 75.2732C408.728 0.491241 307.412 35.8583 305.721 36.7765L305.177 36.8739C294.049 34.5639 281.595 33.1877 267.598 32.9593C242.112 32.5416 222.779 39.6408 208.109 50.7654C208.109 50.7654 27.3707 -23.6918 35.7766 144.41C37.5648 180.172 87.0339 415.003 146.039 344.073C167.605 318.136 188.442 296.206 188.442 296.206C198.792 303.081 211.182 306.589 224.171 305.329L225.18 304.472C224.866 307.693 225.01 310.842 225.584 314.571C210.384 331.554 214.85 334.536 184.464 340.791C153.717 347.128 171.779 358.409 183.572 361.357C197.869 364.933 230.945 369.997 253.294 338.712L252.403 342.281C258.359 347.052 262.541 373.311 261.84 397.114C261.139 420.919 260.671 437.261 265.364 450.026C270.057 462.791 274.734 491.513 314.68 482.954C348.058 475.801 365.355 457.264 367.761 426.345C369.469 404.363 373.333 407.613 373.577 387.96L376.677 378.656C380.251 348.859 377.244 339.246 397.808 343.717L402.806 344.156C417.941 344.845 437.751 341.722 449.377 336.318C474.412 324.699 489.26 305.301 464.575 310.398H464.577" fill="#336791"/>
<path fill-rule="evenodd" clip-rule="evenodd" d="M218.694 160.405C213.619 159.698 209.021 160.352 206.696 162.112C205.387 163.103 204.982 164.251 204.874 165.042C204.582 167.134 206.048 169.448 206.949 170.642C209.497 174.02 213.221 176.342 216.908 176.854C217.442 176.928 217.973 176.964 218.501 176.964C224.648 176.964 230.236 172.178 230.729 168.645C231.345 164.221 224.922 161.272 218.694 160.405" fill="white"/>
<path fill-rule="evenodd" clip-rule="evenodd" d="M386.844 160.544H386.843C386.359 157.076 380.187 156.087 374.331 156.901C368.483 157.716 362.812 160.356 363.286 163.831C363.666 166.534 368.545 171.149 374.323 171.148C374.81 171.148 375.303 171.115 375.799 171.046C379.655 170.512 382.485 168.063 383.828 166.651C385.876 164.501 387.06 162.102 386.844 160.544" fill="white"/>
<path fill-rule="evenodd" clip-rule="evenodd" d="M483.323 309.079C481.175 302.585 474.263 300.494 462.778 302.867C428.677 309.905 416.466 305.029 412.455 302.077C438.961 261.696 460.766 212.888 472.529 167.347C478.102 145.775 481.18 125.742 481.431 109.414C481.708 91.4889 478.657 78.3196 472.361 70.2743C446.977 37.8398 409.725 20.4424 364.629 19.9642C333.628 19.616 307.435 27.5505 302.357 29.781C291.663 27.1216 280.006 25.489 267.316 25.2808C244.042 24.9045 223.926 30.4764 207.27 41.8328C200.035 39.1409 181.338 32.7226 158.473 29.0398C118.942 22.674 87.53 27.4967 65.1127 43.3781C38.3643 62.3286 26.0158 96.203 28.4087 144.059C29.2138 160.16 38.3867 209.69 52.865 257.125C71.9219 319.556 92.636 354.899 114.433 362.169C116.984 363.02 119.926 363.615 123.169 363.615C131.12 363.615 140.868 360.031 151.01 347.838C167.857 327.571 183.586 310.588 189.384 304.417C197.952 309.017 207.364 311.584 216.992 311.842C217.009 312.094 217.035 312.346 217.057 312.597C215.126 314.888 213.541 316.895 212.191 318.61C205.521 327.077 204.132 328.84 182.66 333.261C176.553 334.521 160.329 337.865 160.093 349.236C159.834 361.659 179.267 366.877 181.482 367.43C189.198 369.362 196.631 370.315 203.72 370.315C220.962 370.314 236.133 364.648 248.259 353.684C247.885 397.976 249.732 441.62 255.05 454.918C259.405 465.803 270.046 492.408 303.657 492.406C308.587 492.406 314.017 491.833 319.988 490.553C355.066 483.031 370.297 467.529 376.191 433.35C379.344 415.083 384.756 371.463 387.3 348.066C392.671 349.741 399.587 350.508 407.062 350.507C422.653 350.507 440.643 347.194 451.926 341.957C464.599 336.072 487.471 321.627 483.323 309.079V309.079V309.079ZM399.789 150.972C399.673 157.88 398.722 164.15 397.714 170.696C396.63 177.736 395.508 185.014 395.226 193.85C394.947 202.449 396.021 211.389 397.06 220.033C399.159 237.494 401.312 255.472 392.976 273.211C391.68 270.91 390.429 268.399 389.283 265.619C388.247 263.107 385.997 259.073 382.883 253.489C370.763 231.755 342.382 180.858 356.911 160.089C361.238 153.906 372.22 147.551 399.789 150.972V150.972V150.972ZM366.373 33.9521C406.778 34.8445 438.738 49.9599 461.368 78.8761C478.724 101.056 459.613 201.978 404.285 289.044C403.739 288.35 403.182 287.649 402.606 286.93C402.377 286.642 402.143 286.35 401.907 286.054C416.203 262.442 413.407 239.081 410.919 218.368C409.897 209.868 408.932 201.84 409.177 194.299C409.431 186.304 410.488 179.45 411.51 172.821C412.767 164.652 414.045 156.2 413.692 146.235C413.955 145.191 414.061 143.956 413.924 142.49C413.023 132.934 402.115 104.339 379.879 78.454C367.718 64.2982 349.98 48.455 325.762 37.7693C336.179 35.6104 350.424 33.5971 366.373 33.9521V33.9521V33.9521ZM140.278 338.914C129.104 352.349 121.387 349.774 118.849 348.929C102.314 343.413 83.1294 308.467 66.2146 253.05C51.5784 205.099 43.0247 156.882 42.3484 143.361C40.2108 100.6 50.5762 70.7983 73.1581 54.7838C109.908 28.7217 170.329 44.3209 194.608 52.233C194.258 52.5767 193.895 52.8992 193.549 53.2486C153.71 93.4843 154.655 162.228 154.753 166.429C154.749 168.05 154.885 170.346 155.072 173.503C155.757 185.065 157.032 206.584 153.625 230.954C150.457 253.6 157.438 275.765 172.774 291.766C174.362 293.422 176.019 294.977 177.731 296.441C170.904 303.752 156.068 319.917 140.278 338.914V338.914V338.914ZM182.851 282.108C170.491 269.212 164.877 251.273 167.448 232.887C171.047 207.143 169.718 184.722 169.005 172.677C168.905 170.992 168.817 169.515 168.764 168.349C174.584 163.189 201.556 148.737 220.789 153.144C229.568 155.155 234.915 161.131 237.139 171.413C248.647 224.637 238.663 246.822 230.64 264.648C228.986 268.321 227.424 271.792 226.089 275.384L225.056 278.16C222.438 285.18 220.002 291.706 218.493 297.903C205.354 297.863 192.571 292.251 182.851 282.108V282.108V282.108ZM184.868 353.889C181.032 352.931 177.581 351.266 175.556 349.885C177.247 349.089 180.257 348.007 185.476 346.932C210.736 341.731 214.636 338.062 223.155 327.245C225.109 324.766 227.323 321.954 230.389 318.53C230.39 318.528 230.391 318.527 230.392 318.526C234.96 313.413 237.048 314.28 240.836 315.851C243.906 317.121 246.896 320.969 248.109 325.204C248.682 327.204 249.327 331.001 247.219 333.953C229.423 358.87 203.492 358.55 184.868 353.889V353.889V353.889ZM317.063 476.905C286.161 483.526 275.22 467.759 268.01 449.735C263.356 438.097 261.07 385.623 262.692 327.675C262.714 326.904 262.604 326.159 262.391 325.459C262.206 324.108 261.922 322.74 261.528 321.364C259.114 312.933 253.234 305.879 246.18 302.956C243.377 301.794 238.232 299.664 232.05 301.245C233.369 295.813 235.655 289.68 238.133 283.038L239.173 280.243C240.345 277.093 241.813 273.83 243.367 270.377C251.763 251.724 263.261 226.177 250.782 168.462C246.107 146.846 230.498 136.29 206.834 138.741C192.647 140.209 179.669 145.933 173.196 149.215C171.804 149.92 170.531 150.601 169.342 151.265C171.148 129.484 177.975 88.7803 203.51 63.0273C219.586 46.8134 240.997 38.8061 267.085 39.2372C318.487 40.0793 351.449 66.4582 370.051 88.4398C386.08 107.383 394.76 126.463 398.225 136.753C372.174 134.105 354.456 139.248 345.474 152.088C325.934 180.019 356.164 234.233 370.693 260.287C373.357 265.062 375.657 269.189 376.38 270.942C381.111 282.408 387.236 290.063 391.708 295.652C393.079 297.364 394.409 299.024 395.42 300.474C387.53 302.75 373.358 308.005 374.649 334.275C373.607 347.458 366.199 409.173 362.437 430.978C357.47 459.785 346.869 470.515 317.063 476.905V476.905V476.905ZM446.048 329.298C437.98 333.043 424.478 335.853 411.652 336.455C397.485 337.119 390.274 334.868 388.577 333.484C387.78 317.114 393.875 315.403 400.323 313.592C401.337 313.307 402.325 313.03 403.279 312.696C403.873 313.179 404.522 313.658 405.233 314.127C416.62 321.643 436.93 322.454 465.601 316.536C465.706 316.513 465.811 316.493 465.916 316.472C462.049 320.088 455.431 324.941 446.048 329.298V329.298V329.298Z" fill="white"/>
</g>
</g>
<defs>
<clipPath id="clip0_211_1075">
<rect width="485" height="500" fill="white" transform="translate(14 6)"/>
</clipPath>
<clipPath id="clip1_211_1075">
<rect width="484.848" height="500" fill="white" transform="translate(14 6)"/>
</clipPath>
</defs>
</svg>
