<svg width="512" height="512" viewBox="0 0 512 512" fill="none" xmlns="http://www.w3.org/2000/svg">
<path d="M253.543 2C123.878 2.00001 131.975 58.2304 131.975 58.2304L132.12 116.484H255.855V133.975H82.9723C82.9723 133.975 0 124.565 0 255.398C-9.248e-06 386.231 72.4201 381.591 72.4201 381.591H115.641V320.88C115.641 320.88 113.311 248.46 186.905 248.46H309.628C309.628 248.46 378.579 249.574 378.579 181.822V69.7945C378.579 69.7945 389.048 2 253.543 2ZM185.314 41.1733C197.625 41.1733 207.575 51.1234 207.575 63.4342C207.575 75.745 197.625 85.6951 185.314 85.6951C173.004 85.6951 163.054 75.745 163.054 63.4342C163.054 51.1234 173.004 41.1733 185.314 41.1733Z" fill="url(#paint0_linear_210_793)"/>
<path d="M257.224 510.112C386.889 510.112 378.792 453.881 378.792 453.881L378.647 395.627H254.911V378.136H427.795C427.795 378.136 510.767 387.546 510.767 256.713C510.767 125.881 438.347 130.52 438.347 130.52H395.126V191.232C395.126 191.232 397.456 263.652 323.862 263.652H201.138C201.138 263.652 132.188 262.537 132.188 330.29V442.317C132.188 442.317 121.719 510.112 257.224 510.112ZM325.452 470.938C313.142 470.938 303.191 460.988 303.191 448.677C303.191 436.367 313.142 426.417 325.452 426.417C337.763 426.417 347.713 436.367 347.713 448.677C347.713 460.988 337.763 470.938 325.452 470.938Z" fill="url(#paint1_linear_210_793)"/>
<defs>
<linearGradient id="paint0_linear_210_793" x1="49.0857" y1="47.7029" x2="302.204" y2="298.296" gradientUnits="userSpaceOnUse">
<stop stop-color="#387EB8"/>
<stop offset="1" stop-color="#366994"/>
</linearGradient>
<linearGradient id="paint1_linear_210_793" x1="204.449" y1="208.621" x2="476.27" y2="465.582" gradientUnits="userSpaceOnUse">
<stop stop-color="#FFE052"/>
<stop offset="1" stop-color="#FFC331"/>
</linearGradient>
</defs>
</svg>
