<svg width="512" height="512" viewBox="0 0 512 512" fill="none" xmlns="http://www.w3.org/2000/svg">
<g clip-path="url(#clip0_210_786)">
<path d="M171.333 512.003C218.437 512.003 256.667 473.773 256.667 426.669V341.336H171.333C124.229 341.336 86 379.565 86 426.669C86 473.773 124.229 512.003 171.333 512.003Z" fill="#0ACF83"/>
<path d="M86 255.997C86 208.893 124.229 170.664 171.333 170.664H256.667V341.331H171.333C124.229 341.331 86 303.101 86 255.997Z" fill="#A259FF"/>
<path d="M86 85.3333C86 38.2293 124.229 0 171.333 0H256.667V170.667H171.333C124.229 170.667 86 132.437 86 85.3333Z" fill="#F24E1E"/>
<path d="M256.664 0H341.997C389.101 0 427.331 38.2293 427.331 85.3333C427.331 132.437 389.101 170.667 341.997 170.667H256.664V0Z" fill="#FF7262"/>
<path d="M427.331 255.997C427.331 303.101 389.101 341.331 341.997 341.331C294.893 341.331 256.664 303.101 256.664 255.997C256.664 208.893 294.893 170.664 341.997 170.664C389.101 170.664 427.331 208.893 427.331 255.997Z" fill="#1ABCFE"/>
</g>
<defs>
<clipPath id="clip0_210_786">
<rect width="512" height="512" fill="white"/>
</clipPath>
</defs>
</svg>
